<svg xmlns="http://www.w3.org/2000/svg" viewBox="0 0 504.48 105.13">
  <g fill="#4e5d64">
    <path d="M54.713 50.385v4.773H10.12c.422 6.719 2.425 11.846 6.009 15.382 3.62 3.5 8.644 5.25 15.075 5.25 3.725 0 7.327-.459 10.806-1.378 3.514-.92 6.993-2.299 10.437-4.137v9.229a57.899 57.899 0 0 1-10.7 3.394 53.272 53.272 0 0 1-11.123 1.167c-9.417 0-16.885-2.758-22.401-8.274C2.74 70.275 0 62.814 0 53.408c0-9.724 2.6-17.432 7.801-23.126 5.236-5.728 12.281-8.592 21.137-8.592 7.941 0 14.214 2.581 18.817 7.744 4.639 5.127 6.958 12.11 6.958 20.95m-9.699-2.864c-.07-5.339-1.563-9.6-4.48-12.782-2.881-3.183-6.712-4.774-11.49-4.774-5.412 0-9.752 1.538-13.02 4.615-3.233 3.076-5.095 7.408-5.587 12.995l34.578-.053" />
    <path d="M67.258 3.338h11.438l19.555 29.437 19.661-29.437h11.438l-25.3 38.03 26.987 41.16H119.6l-22.138-33.68-22.297 33.68h-11.49l28.094-42.274-24.51-36.916" fill="red" />
    <path d="M171.469 52.662c-7.836 0-13.265.902-16.288 2.705-3.022 1.803-4.533 4.88-4.533 9.229 0 3.465 1.124 6.223 3.374 8.274 2.284 2.016 5.376 3.023 9.276 3.023 5.377 0 9.681-1.91 12.915-5.728 3.268-3.854 4.902-8.964 4.902-15.328v-2.175h-9.646m19.344-4.031v33.893h-9.699v-9.017c-2.213 3.607-4.972 6.276-8.275 8.009-3.303 1.697-7.344 2.546-12.123 2.546-6.044 0-10.858-1.697-14.442-5.092-3.55-3.43-5.324-8.009-5.324-13.738 0-6.682 2.214-11.722 6.641-15.116 4.463-3.395 11.104-5.092 19.925-5.092h13.599v-.955c0-4.49-1.476-7.956-4.428-10.396-2.917-2.475-7.028-3.713-12.334-3.713-3.374 0-6.66.407-9.857 1.22a38.938 38.938 0 0 0-9.224 3.66v-9.017c3.55-1.379 6.993-2.404 10.331-3.076 3.339-.707 6.59-1.061 9.752-1.061 8.539 0 14.917 2.228 19.133 6.683 4.217 4.455 6.326 11.209 6.326 20.262" />
    <path d="M256.8 34.526c2.425-4.385 5.324-7.62 8.697-9.707 3.373-2.086 7.344-3.129 11.913-3.129 6.149 0 10.893 2.175 14.23 6.524 3.339 4.314 5.008 10.466 5.008 18.458v35.855h-9.751V46.99c0-5.693-1.002-9.918-3.005-12.676-2.003-2.758-5.06-4.137-9.171-4.137-5.025 0-8.996 1.68-11.913 5.039-2.916 3.359-4.375 7.938-4.374 13.737v33.574h-9.752V46.99c0-5.728-1.001-9.954-3.004-12.676-2.003-2.758-5.096-4.137-9.277-4.137-4.955 0-8.89 1.697-11.807 5.091-2.917 3.36-4.375 7.921-4.375 13.685v33.574h-9.751V23.122h9.751v9.229c2.214-3.642 4.867-6.33 7.96-8.062 3.091-1.733 6.764-2.6 11.016-2.6 4.287.001 7.924 1.097 10.91 3.29 3.022 2.192 5.254 5.374 6.694 9.547" />
    <path d="M325.434 73.617v31.505h-9.752v-82h9.752v9.017c2.038-3.536 4.603-6.152 7.695-7.85 3.128-1.732 6.853-2.598 11.175-2.598 7.169 0 12.984 2.864 17.447 8.592 4.498 5.728 6.747 13.26 6.747 22.595 0 9.335-2.249 16.867-6.747 22.595-4.463 5.728-10.278 8.592-17.447 8.592-4.322 0-8.047-.849-11.175-2.546-3.092-1.732-5.657-4.367-7.695-7.903m32.996-20.738c0-7.178-1.476-12.8-4.428-16.867-2.916-4.102-6.94-6.153-12.07-6.153-5.131 0-9.172 2.051-12.124 6.153-2.916 4.067-4.375 9.689-4.375 16.867 0 7.178 1.459 12.818 4.375 16.92 2.952 4.066 6.993 6.099 12.123 6.099 5.13 0 9.154-2.033 12.071-6.1 2.952-4.101 4.428-9.741 4.428-16.919" />
    <path d="M384.568-.003h9.698v82.53h-9.698V-.003" />
    <path d="M465.004 50.385v4.773h-44.592c.421 6.719 2.424 11.846 6.008 15.382 3.62 3.5 8.645 5.25 15.075 5.25 3.725 0 7.327-.459 10.806-1.378 3.514-.92 6.993-2.299 10.436-4.137v9.229a57.899 57.899 0 0 1-10.7 3.394 53.272 53.272 0 0 1-11.122 1.167c-9.418 0-16.885-2.758-22.402-8.274-5.481-5.516-8.222-12.977-8.222-22.383 0-9.724 2.6-17.432 7.8-23.126 5.237-5.728 12.282-8.592 21.137-8.592 7.942 0 14.214 2.581 18.818 7.744 4.638 5.127 6.958 12.11 6.958 20.95m-9.7-2.864c-.07-5.339-1.563-9.6-4.48-12.782-2.88-3.183-6.711-4.774-11.49-4.774-5.412 0-9.752 1.538-13.02 4.615-3.232 3.076-5.095 7.408-5.586 12.995l34.578-.053" />
  </g>
  <path d="M487.224 15.416v1.852c-1.172-.472-2.061-.77-2.668-.895a7.45 7.45 0 0 0-1.696-.208c-.896 0-1.592.146-2.088.437-.483.291-.724.763-.724 1.415 0 .555.158.944.475 1.165.331.223.972.41 1.924.562l1.158.188c1.544.25 2.675.673 3.392 1.27.73.596 1.096 1.345 1.096 2.247 0 1.096-.497 1.963-1.49 2.601-.992.624-2.453.936-4.384.936-.717 0-1.475-.062-2.275-.187a24.04 24.04 0 0 1-2.647-.645v-1.998c1.255.583 2.227.958 2.916 1.124.69.167 1.358.25 2.006.25.952 0 1.682-.153 2.193-.458.523-.305.785-.805.785-1.498 0-.61-.193-1.062-.579-1.353-.372-.291-.992-.506-1.861-.645l-1.158-.188c-1.544-.25-2.661-.638-3.35-1.165-.676-.541-1.014-1.235-1.014-2.08 0-1 .476-1.818 1.427-2.457.951-.638 2.282-.957 3.992-.957.703 0 1.413.056 2.13.167.73.097 1.544.27 2.44.52m2.958-.479h3.805l3.33 7.076 3.35-7.076h3.805v11.82h-2.854V18.35l-2.895 6.16h-2.792l-2.916-6.16v8.408h-2.833v-11.82" />
</svg>
